<svg width="95" height="95" viewBox="0 0 95 95" fill="none" xmlns="http://www.w3.org/2000/svg">
<path d="M18.43 30.5425C19.2059 29.4183 28.595 16.1183 45.6475 16.1183C63.0009 16.1183 72.4375 29.8933 73.1342 30.9383" stroke="#DFDFDF" stroke-miterlimit="10"/>
<path d="M27.55 21.755C39.7259 30.685 51.7909 30.875 63.7292 21.755" stroke="#DFDFDF" stroke-miterlimit="10"/>
<path d="M36.9392 17.3217C43.13 22.7209 48.9725 22.6892 54.4667 17.3534" stroke="#DFDFDF" stroke-miterlimit="10"/>
<path d="M45.9167 16.1183C36.5275 17.575 32.5058 23.655 29.8775 30.9383" stroke="#DFDFDF" stroke-miterlimit="10"/>
<path d="M45.9167 16.1183C55.3059 17.575 59.3275 23.655 61.9559 30.9383" stroke="#DFDFDF" stroke-miterlimit="10"/>
<path d="M45.6475 16.1183C41.8158 19.3642 39.3775 24.1142 39.1083 31.2075" stroke="#DFDFDF" stroke-miterlimit="10"/>
<path d="M45.6475 16.1183C49.8592 18.4933 52.3134 23.37 53.5959 31.2075" stroke="#DFDFDF" stroke-miterlimit="10"/>
<path d="M45.505 79.8317C62.8583 79.8317 72.295 66.0567 72.9917 65.0117" stroke="#DFDFDF" stroke-miterlimit="10"/>
<path d="M18.2875 65.4075C19.0633 66.5317 28.4525 79.8317 45.505 79.8317" stroke="#DFDFDF" stroke-miterlimit="10"/>
<path d="M27.4075 74.195C39.5833 65.265 51.6483 65.075 63.5867 74.195" stroke="#DFDFDF" stroke-miterlimit="10"/>
<path d="M36.7967 78.6125C42.9875 73.2133 48.83 73.245 54.3242 78.5808" stroke="#DFDFDF" stroke-miterlimit="10"/>
<path d="M45.7742 79.8317C36.385 78.375 32.3633 72.295 29.735 65.0117" stroke="#DFDFDF" stroke-miterlimit="10"/>
<path d="M45.7742 79.8317C55.1633 78.375 59.185 72.295 61.8133 65.0117" stroke="#DFDFDF" stroke-miterlimit="10"/>
<path d="M45.505 79.8317C41.6733 76.5859 39.235 71.8359 38.9659 64.7425" stroke="#DFDFDF" stroke-miterlimit="10"/>
<path d="M45.505 79.8317C49.7167 77.4567 52.1708 72.58 53.4533 64.7425" stroke="#DFDFDF" stroke-miterlimit="10"/>
<path d="M17.48 56.9525H28.405" stroke="#DFDFDF" stroke-width="2.0016" stroke-miterlimit="10"/>
<path d="M22.9425 56.2084V38.7917" stroke="#DFDFDF" stroke-width="1.8412" stroke-miterlimit="10"/>
<path d="M17.48 37.8575H28.405" stroke="#DFDFDF" stroke-width="2.0016" stroke-miterlimit="10"/>
<path d="M47.5 43.89C50.2234 35.6092 33.6617 34.39 34.8017 43.89C36.48 48.07 45.9167 45.4575 47.5 51.9017C48.4025 60.325 32.6484 59.1692 33.725 51.9017" stroke="#DFDFDF" stroke-width="2.0079" stroke-miterlimit="10"/>
<path d="M63.7292 57.7917C68.3638 57.7917 72.1209 53.1839 72.1209 47.5C72.1209 41.8161 68.3638 37.2083 63.7292 37.2083C59.0946 37.2083 55.3375 41.8161 55.3375 47.5C55.3375 53.1839 59.0946 57.7917 63.7292 57.7917Z" stroke="#DFDFDF" stroke-width="2.0644" stroke-miterlimit="10"/>
</svg>
