<svg width="60" height="75" viewBox="0 0 60 75" fill="none" xmlns="http://www.w3.org/2000/svg">
<path d="M18.36 19.8508C21.4533 39.5202 39.3867 38.1774 43.5466 19.8508" stroke="white" stroke-miterlimit="10"/>
<path d="M18.36 19.8508C15.84 13.246 18.12 7.72983 25.9333 3.48386C28.7467 1.93547 32.1467 1.93547 36.1467 3.48386C44.2533 6.77418 44.4133 13.9355 43.8 19.3185C43.1467 21.3871 40.5067 21.3992 40.1467 19.8629C39.7467 16.1976 39.64 14.2984 34.6933 13.4516C27.2933 11.5403 26.2666 6.50805 21.5066 16.5363C20.7733 21.1814 19.2267 21.375 18.36 19.8508Z" stroke="white"/>
<path d="M24.0133 31.6935V36.4597L30.6933 40.7056L37.08 36.1935V31.6935" stroke="white"/>
<path d="M24.0133 34.3669L17.3733 36.9193L23.12 47.2621L30.6933 40.7056L37.08 46.7298L43.5333 37.4274L37.08 34.1008" stroke="white"/>
<path d="M17.6933 37.5L12.2267 38.6129L14.6133 41.5524L13.16 44.9516L30.4533 68.5766L30.5467 61.8629L23.12 47.2621" stroke="white"/>
<path d="M27.6266 43.875L30.4533 45.7984L33.76 43.875" stroke="white"/>
<path d="M29.04 44.8427L27.6266 55.6815" stroke="white"/>
<path d="M32.1067 44.8427L33.08 55.996" stroke="white"/>
<path d="M43.5333 37.8508L47.7467 39L44.8533 41.9395L46.64 43.875L45.1067 45.7984" stroke="white"/>
<path d="M40.1067 55.0887L30.4533 68.5766L30.5467 61.8629L37.08 46.7298" stroke="white"/>
<path d="M38.56 50.746C38.6 50.7339 38.64 50.7218 38.68 50.6976C39.3733 50.3226 40.08 49.9597 40.7733 49.5847C40.8533 49.5484 40.88 49.5 40.88 49.4153C40.88 48.6774 40.88 47.9395 40.88 47.2016C40.88 47.1532 40.88 47.1169 40.88 47.0564C41.16 47.1048 41.44 47.1411 41.7066 47.1895C42.2666 47.2863 42.84 47.371 43.4 47.4677C43.48 47.4798 43.5333 47.4677 43.5866 47.4072C44.0933 46.8387 44.6 46.2822 45.12 45.7258C45.1466 45.6895 45.1866 45.6532 45.2266 45.6048C45.2666 45.6411 45.3066 45.6895 45.3333 45.7258C45.84 46.2822 46.36 46.8508 46.8667 47.4072C46.92 47.4677 46.9866 47.4798 47.0666 47.4677C47.8666 47.3347 48.68 47.2016 49.4933 47.0685C49.52 47.0685 49.5466 47.0685 49.5866 47.0685C49.5866 47.1169 49.5866 47.1653 49.5866 47.2016C49.5866 47.9395 49.5866 48.6653 49.5866 49.4032C49.5866 49.5 49.6133 49.5484 49.7066 49.5968C50.4 49.9597 51.0933 50.3347 51.7866 50.6976C51.8266 50.7218 51.8666 50.7339 51.9066 50.7702C51.88 50.8064 51.8533 50.8427 51.8133 50.879C51.3066 51.4476 50.7866 52.004 50.2666 52.5726C50.2 52.6451 50.2 52.6935 50.2266 52.7782C50.52 53.504 50.8 54.2298 51.0933 54.9798C50.84 55.0282 50.5866 55.0645 50.3333 55.1008C49.7333 55.1976 49.1333 55.2943 48.5466 55.3911C48.4933 55.4032 48.44 55.4637 48.4266 55.5C48.1466 56.1895 47.88 56.8911 47.6 57.5806C47.5866 57.6169 47.56 57.6653 47.5466 57.7137C47.3733 57.6169 47.2 57.5322 47.04 57.4476C46.48 57.1452 45.9066 56.8548 45.3466 56.5403C45.2666 56.4919 45.2133 56.4919 45.12 56.5403C44.4266 56.9153 43.7333 57.2782 43.04 57.6532C43 57.6774 42.96 57.6895 42.92 57.7137C42.8266 57.4718 42.7333 57.2298 42.6266 56.9879C42.4266 56.4919 42.24 55.996 42.04 55.5C42.0133 55.4274 41.9733 55.3911 41.88 55.379C41.0533 55.246 40.2133 55.1129 39.3733 54.9677C39.4666 54.7258 39.56 54.496 39.6533 54.2661C39.8533 53.7581 40.0533 53.25 40.2533 52.7419C40.2666 52.6935 40.2666 52.621 40.24 52.5968C39.6933 51.9798 39.1333 51.375 38.5733 50.7702C38.56 50.7581 38.56 50.7581 38.56 50.746Z" stroke="white" stroke-miterlimit="10"/>
<path d="M42.0533 55.996L40.52 68.0806L44.1467 65.7218L47.2533 68.3105L46.8267 57.375" stroke="white"/>
<path d="M48.48 55.6815L52.8266 71.3589L49.3333 69.5081L46.44 73.1492L46.3066 67.2218" stroke="white"/>
<path d="M48.0533 39.2782L55.68 41.5887L52.8266 60.3145" stroke="white"/>
<path d="M12.2266 39.2782L5.33331 40.7056L9.15998 60.3145" stroke="white"/>
<path d="M55.68 41.5887L57.84 54.5201" stroke="white"/>
<path d="M5.54665 41.8185L2.35999 54.5202" stroke="white"/>
</svg>
