<svg width="75" height="68" viewBox="0 0 75 68" fill="none" xmlns="http://www.w3.org/2000/svg">
<path d="M1.09656 40.2662V23.8151C1.28151 22.4896 2.15345 21.7237 3.36888 21.7532H18.892C20.4906 21.9152 20.9002 22.843 20.9134 24.0065V40.2662C20.5434 41.577 19.4866 42.1514 17.8748 42.1514H3.88412C2.0874 42.2987 1.25509 41.6212 1.09656 40.2662Z" stroke="white"/>
<path d="M15.6157 63.8603V47.4092C15.8006 46.0837 16.6726 45.3179 17.888 45.3473H33.3979C34.9965 45.5093 35.406 46.4372 35.4193 47.6007V63.8603C35.0493 65.1711 33.9924 65.7455 32.3807 65.7455H18.3768C16.6065 65.8928 15.7742 65.2153 15.6157 63.8603Z" stroke="white"/>
<path d="M39.8979 63.8603V47.4092C40.0828 46.0837 40.9548 45.3179 42.1702 45.3473H57.6802C59.2787 45.5093 59.6883 46.4372 59.7015 47.6007V63.8603C59.3316 65.1711 58.2747 65.7455 56.6629 65.7455H42.659C40.8887 65.8928 40.0696 65.2153 39.8979 63.8603Z" stroke="white"/>
<path d="M54.0074 40.2662V23.8151C54.1924 22.4896 55.0643 21.7237 56.2798 21.7532H71.7897C73.3883 21.9152 73.7978 22.843 73.811 24.0065V40.2662C73.4411 41.577 72.3842 42.1514 70.7725 42.1514H56.7686C54.9983 42.2987 54.1792 41.6212 54.0074 40.2662Z" stroke="white"/>
<path d="M12.9866 18.675V9.74988C12.9866 8.20345 13.2773 7.62906 14.9683 7.62906H21.5079" stroke="white"/>
<path d="M61.6699 18.675V9.74988C61.6699 8.20345 61.3793 7.62906 59.6882 7.62906H53.1487" stroke="white"/>
<path d="M63.9159 38.3663C67.0679 38.3663 69.6231 35.5177 69.6231 32.0038C69.6231 28.4899 67.0679 25.6413 63.9159 25.6413C60.7638 25.6413 58.2086 28.4899 58.2086 32.0038C58.2086 35.5177 60.7638 38.3663 63.9159 38.3663Z" stroke="white"/>
<path d="M30.148 50.3548H20.9134V60.6497H30.148V50.3548Z" stroke="white"/>
<path d="M49.8123 47.8412L42.666 55.808L49.8123 63.7749L56.9587 55.808L49.8123 47.8412Z" stroke="white" stroke-width="0.9154"/>
<path d="M4.8089 36.378L11.005 26.201L17.2406 36.378H4.8089Z" stroke="white" stroke-width="0.9154"/>
<path d="M25.0485 6.27409C25.0485 6.48028 25.0881 6.67174 25.1806 6.86321C27.0301 10.8545 47.7321 10.4126 47.7321 6.27409C47.7321 -0.220933 25.0485 -0.883691 25.0485 6.27409Z" stroke="white" stroke-width="0.9154"/>
<path d="M25.0485 6.495C22.1816 16.8929 50.5197 17.2758 47.7321 6.495" stroke="white" stroke-width="0.9154"/>
<path d="M29.3157 13.152C36.3837 21.7384 62.6607 16.4216 47.917 8.99875" stroke="white" stroke-width="0.9154"/>
<path d="M30.148 14.4334C29.3157 24.7871 56.9535 24.9786 52.105 12.3862" stroke="white" stroke-width="0.9154"/>
<path d="M30.6897 17.2022C27.4661 18.1743 26.832 20.192 27.5718 22.0182C29.3157 26.7459 47.7321 26.5692 48.4059 20.7811" stroke="white" stroke-width="0.9154"/>
<path d="M27.2944 20.9284C25.5241 32.5782 51.3256 30.2512 47.9963 21.2819" stroke="white" stroke-width="0.9154"/>
<path d="M27.9417 24.8902C24.8371 35.2145 51.4312 35.4943 47.7189 25.3615" stroke="white" stroke-width="0.9154"/>
<path d="M27.8625 27.718C26.145 39.6329 48.9872 40.5755 47.7321 28.3366" stroke="white" stroke-width="0.9154"/>
</svg>
