<svg width="95" height="95" viewBox="0 0 95 95" fill="none" xmlns="http://www.w3.org/2000/svg">
<path d="M27.423 31.3817C25.8397 12.3975 37.6355 19.6175 68.3522 17.7333C76.443 17.29 79.7839 21.66 77.8522 31.3817H69.6664V77.6625C69.8405 77.995 57.5222 82.1592 58.5514 67.6558L17.923 66.9433C16.023 83.0142 31.2547 78.4225 66.6264 78.5333" stroke="white" stroke-miterlimit="10"/>
<path d="M69.6667 31.3817V17.7175" stroke="white" stroke-miterlimit="10"/>
<path d="M17.765 36.0208L30.7642 32.1733L43.4942 36.0208V48.3867C35.1183 67.26 27.835 67.1333 18.1292 48.3867V35.2608" stroke="white" stroke-miterlimit="10"/>
<path d="M26.9167 67.1017V60.9425" stroke="white" stroke-miterlimit="10"/>
<path d="M23.7817 46.075L29.1967 51.2842L37.5725 42.8925" stroke="white" stroke-miterlimit="10"/>
<path d="M49.1467 36.3217H63.0958" stroke="white" stroke-miterlimit="10"/>
<path d="M49.1467 42.75H63.3492" stroke="white" stroke-miterlimit="10"/>
<path d="M49.1467 49.02H63.3492" stroke="white" stroke-miterlimit="10"/>
<path d="M49.1467 55.48H58.5517" stroke="white" stroke-miterlimit="10"/>
</svg>
